<svg width="200" height="69" viewBox="0 0 200 69" fill="none" xmlns="http://www.w3.org/2000/svg">
<path d="M22.5277 41.4122L14.5569 54.8784L7.97358 51.17L15.943 37.6981H0V30.2856H15.943L7.97357 16.8137L14.5569 13.1053L22.5277 26.5715L30.4955 13.1055L37.0785 16.8137L29.109 30.2856H45.0494V37.6981H29.109L37.0785 51.17L30.4955 54.8782L22.5277 41.4122Z" fill="url(#paint0_linear_22_97)"/>
<path d="M200 5.44748H191.118V28.7764H185.316V5.44748H176.395V0.434334H200V5.44748Z" fill="#2E145E"/>
<path d="M156.538 14.6053C156.538 20.3685 159.577 24.1184 163.919 24.1184C166.998 24.1184 169.248 22.1842 170.038 19.0263L175.485 20.8421C173.827 25.9737 169.801 29.2105 163.919 29.2105C156.261 29.2105 150.695 23.1711 150.695 14.6053C150.695 6.03953 156.261 6.86646e-05 163.919 6.86646e-05C169.801 6.86646e-05 173.827 3.23691 175.485 8.36847L170.038 10.1843C169.248 7.02637 166.998 5.09216 163.919 5.09216C159.577 5.09216 156.538 8.84216 156.538 14.6053Z" fill="#2E145E"/>
<path d="M129.141 0.434334H148.719V5.44748H134.864V11.7633H146.469V16.7369H134.864V23.7632H148.719V28.7764H129.141V0.434334Z" fill="#2E145E"/>
<path d="M107.245 28.7764V0.434334H113.048V23.7632H126.074V28.7764H107.245Z" fill="#2E145E"/>
<path d="M83.692 0.434334H103.271V5.44748H89.4157V11.7633H101.021V16.7369H89.4157V23.7632H103.271V28.7764H83.692V0.434334Z" fill="#2E145E"/>
<path d="M57.3356 23.6052L61.3224 19.7368C63.4145 22.6973 66.454 24.3552 69.5724 24.3552C72.5329 24.3552 74.704 23.0526 74.704 20.6447C74.704 18.0394 72.0198 17.6842 67.7566 16.7368C63.5329 15.75 58.954 14.4079 58.954 8.80261C58.954 3.39473 63.6119 0 69.4934 0C74.3882 0 78.2171 2.17105 80.1908 5.01315L76.3619 8.76314C74.704 6.4342 72.4934 4.85525 69.3355 4.85525C66.5724 4.85525 64.6777 6.19736 64.6777 8.24998C64.6777 10.4605 66.7303 10.8947 70.4408 11.7237C74.9408 12.7105 80.4671 13.8552 80.4671 20.0526C80.4671 25.7763 75.4145 29.2105 69.375 29.2105C64.5987 29.2105 59.625 27.0394 57.3356 23.6052Z" fill="#2E145E"/>
<path d="M138.721 57.2759V67.8153H132.918V39.4733H144.523C151.037 39.4733 155.102 42.5522 155.102 48.3943C155.102 52.697 152.773 55.5785 148.787 56.7233L155.852 67.8153H149.221L142.668 57.2759H138.721ZM138.721 52.4206H144.208C147.602 52.4206 149.339 50.9601 149.339 48.4338C149.339 45.868 147.602 44.4075 144.208 44.4075H138.721V52.4206Z" fill="#2E145E"/>
<path d="M112.878 39.4733H119.509L130.127 67.8153H124.246L121.996 61.7364H110.312L108.062 67.8153H102.299L112.878 39.4733ZM116.114 45.9075L112.128 56.8022H120.141L116.114 45.9075Z" fill="#2E145E"/>
<path d="M104.901 44.4864H96.0193V67.8153H90.2167V44.4864H81.2957V39.4733H104.901V44.4864Z" fill="#2E145E"/>
<path d="M57.3355 62.6443L61.3224 58.7759C63.4145 61.7364 66.4539 63.3943 69.5724 63.3943C72.5329 63.3943 74.7039 62.0917 74.7039 59.6838C74.7039 57.0785 72.0197 56.7233 67.7566 55.7759C63.5329 54.7891 58.954 53.447 58.954 47.8417C58.954 42.4338 63.6118 39.0391 69.4934 39.0391C74.3881 39.0391 78.2171 41.2101 80.1908 44.0522L76.3618 47.8022C74.7039 45.4733 72.4934 43.8944 69.3355 43.8944C66.5724 43.8944 64.6776 45.2365 64.6776 47.2891C64.6776 49.4996 66.7303 49.9338 70.4408 50.7628C74.9408 51.7496 80.4671 52.8943 80.4671 59.0917C80.4671 64.8154 75.4145 68.2496 69.375 68.2496C64.5987 68.2496 59.625 66.0785 57.3355 62.6443Z" fill="#2E145E"/>
<defs>
<linearGradient id="paint0_linear_22_97" x1="45.0494" y1="13.1053" x2="-5.27103e-06" y2="54.8784" gradientUnits="userSpaceOnUse">
<stop offset="0.240963" stop-color="#875BF7"/>
<stop offset="0.717862" stop-color="#FF559E"/>
</linearGradient>
</defs>
</svg>
