<svg width="256" height="256" fill="none" xmlns="http://www.w3.org/2000/svg"><path d="M101.835 123.128v-10.105H200V56H56v77.233h102.496v10.105H56V200h144v-77.233h-98.165v.361Zm27.428-52.331c3.97 0 7.218 3.248 7.218 7.218 0 3.97-3.248 7.218-7.218 7.218-3.97 0-7.218-3.248-7.218-7.218.361-3.97 3.609-7.218 7.218-7.218ZM98.586 92.812h63.88l-2.887 10.105h-58.105l-2.888-10.105Zm30.677 92.391c-3.97 0-7.218-3.248-7.218-7.218 0-3.97 3.248-7.218 7.218-7.218 3.97 0 7.218 3.248 7.218 7.218 0 3.97-3.248 7.218-7.218 7.218Zm-30.677-22.015 2.527-10.105h58.466l2.887 10.105h-63.88Z" fill="#0675C1"/></svg>