<svg width="42" height="83" viewBox="0 0 42 83" fill="none" xmlns="http://www.w3.org/2000/svg">
<rect x="1.5" y="1.87781" width="39" height="79.6222" rx="19.5" fill="white" stroke="#8365C1" stroke-width="3"/>
<line x1="37" y1="77.1445" x2="5" y2="77.1445" stroke="#8365C1"/>
<line x1="41" y1="72.2013" x2="2" y2="72.2013" stroke="#8365C1"/>
<line x1="5" y1="6.93958" x2="37" y2="6.93958" stroke="#8365C1"/>
<line x1="1" y1="11.8827" x2="40" y2="11.8827" stroke="#8365C1"/>
<line x1="1" y1="16.8259" x2="40" y2="16.8259" stroke="#8365C1"/>
<line x1="1" y1="21.7692" x2="40" y2="21.7692" stroke="#8365C1"/>
<line x1="1" y1="26.7124" x2="40" y2="26.7124" stroke="#8365C1"/>
<line x1="1" y1="31.6556" x2="40" y2="31.6556" stroke="#8365C1"/>
<line x1="1" y1="36.5988" x2="40" y2="36.5988" stroke="#8365C1"/>
<line x1="1" y1="41.542" x2="40" y2="41.542" stroke="#8365C1"/>
<line x1="1" y1="46.4852" x2="40" y2="46.4852" stroke="#8365C1"/>
<line x1="1" y1="51.4285" x2="40" y2="51.4285" stroke="#8365C1"/>
<line x1="1" y1="56.3716" x2="40" y2="56.3716" stroke="#8365C1"/>
<line x1="1" y1="61.3148" x2="40" y2="61.3148" stroke="#8365C1"/>
<line x1="1" y1="66.9642" x2="40" y2="66.9642" stroke="#8365C1"/>
</svg>
