<svg width="50" height="83" viewBox="0 0 50 83" fill="none" xmlns="http://www.w3.org/2000/svg">
<path fill-rule="evenodd" clip-rule="evenodd" d="M7.25586 14.8296C7.25586 14.9475 7.25781 15.065 7.26168 15.1822L7.25572 15.1827C6.86879 18.5982 8.58106 22.2657 10.2744 25.8926C12.9575 31.6394 15.593 37.2844 9.75571 41.6642C-3.4493 51.572 0.0336893 62.6824 1.65357 67.8496C1.99643 68.9433 2.25583 69.7708 2.25585 70.2642L2.52941 70.1924C4.15358 77.2414 12.8149 82.6222 23.2559 82.6222C34.8538 82.6222 44.2559 75.9828 44.2559 67.7926C44.2559 64.9541 43.1266 62.3019 41.168 60.0478L41.2558 60.0247C33.3794 44.0335 36.1658 40.7062 42.4573 33.1936L42.7559 32.837C52.4574 21.2431 49.2645 12.8139 48.8062 11.7627C46.8056 5.04413 38.3649 0 28.2559 0C16.6579 0 7.25586 6.63945 7.25586 14.8296Z" fill="#8365C1"/>
</svg>
