<svg width="50" height="83" viewBox="0 0 50 83" fill="none" xmlns="http://www.w3.org/2000/svg">
<mask id="path-1-inside-1" fill="white">
<path fill-rule="evenodd" clip-rule="evenodd" d="M7.25586 15.2074C7.25586 15.3253 7.25781 15.4429 7.26168 15.5601L7.25572 15.5606C6.86879 18.9761 8.58106 22.6436 10.2744 26.2705C12.9575 32.0173 15.593 37.6623 9.75571 42.0421C-3.4493 51.9499 0.0336879 63.0603 1.65357 68.2275C1.99643 69.3212 2.25583 70.1487 2.25585 70.6421L2.52941 70.5703C4.15358 77.6193 12.8149 83.0001 23.2559 83.0001C34.8538 83.0001 44.2559 76.3607 44.2559 68.1705C44.2559 65.332 43.1266 62.6798 41.168 60.4257L41.2558 60.4026C33.3794 44.4114 36.1658 41.0841 42.4573 33.5715L42.7559 33.2149C52.4568 21.6217 49.2649 13.1929 48.8063 12.1408C46.8059 5.42209 38.365 0.377808 28.2559 0.377808C16.6579 0.377808 7.25586 7.01726 7.25586 15.2074Z"/>
</mask>
<path fill-rule="evenodd" clip-rule="evenodd" d="M7.25586 15.2074C7.25586 15.3253 7.25781 15.4429 7.26168 15.5601L7.25572 15.5606C6.86879 18.9761 8.58106 22.6436 10.2744 26.2705C12.9575 32.0173 15.593 37.6623 9.75571 42.0421C-3.4493 51.9499 0.0336879 63.0603 1.65357 68.2275C1.99643 69.3212 2.25583 70.1487 2.25585 70.6421L2.52941 70.5703C4.15358 77.6193 12.8149 83.0001 23.2559 83.0001C34.8538 83.0001 44.2559 76.3607 44.2559 68.1705C44.2559 65.332 43.1266 62.6798 41.168 60.4257L41.2558 60.4026C33.3794 44.4114 36.1658 41.0841 42.4573 33.5715L42.7559 33.2149C52.4568 21.6217 49.2649 13.1929 48.8063 12.1408C46.8059 5.42209 38.365 0.377808 28.2559 0.377808C16.6579 0.377808 7.25586 7.01726 7.25586 15.2074Z" fill="white"/>
<path d="M7.26168 15.5601L7.51584 18.5493L10.3541 18.308L10.26 15.461L7.26168 15.5601ZM7.25572 15.5606L7.00156 12.5714L4.55157 12.7797L4.27478 15.2229L7.25572 15.5606ZM10.2744 26.2705L12.9927 25.0014L10.2744 26.2705ZM9.75571 42.0421L11.5562 44.4417L9.75571 42.0421ZM1.65357 68.2275L4.5162 67.3301H4.5162L1.65357 68.2275ZM2.25585 70.6421L-0.744154 70.6422L-0.744009 74.5314L3.01767 73.5438L2.25585 70.6421ZM2.52941 70.5703L5.45281 69.8967L4.7585 66.8834L1.76758 67.6686L2.52941 70.5703ZM41.168 60.4257L40.4062 57.524L35.7374 58.7497L38.9034 62.3933L41.168 60.4257ZM41.2558 60.4026L42.0176 63.3043L45.5699 62.3717L43.9471 59.077L41.2558 60.4026ZM42.4573 33.5715L44.7573 35.4977L44.7576 35.4974L42.4573 33.5715ZM42.7559 33.2149L45.0561 35.1408L45.0566 35.1402L42.7559 33.2149ZM48.8063 12.1408L45.9311 12.9969L45.9832 13.172L46.0562 13.3395L48.8063 12.1408ZM10.26 15.461C10.2573 15.3768 10.2559 15.2923 10.2559 15.2074H4.25586C4.25586 15.3584 4.25836 15.509 4.26332 15.6592L10.26 15.461ZM7.50987 18.5498L7.51584 18.5493L7.00753 12.5709L7.00156 12.5714L7.50987 18.5498ZM12.9927 25.0014C12.13 23.1535 11.3601 21.4954 10.8346 19.8986C10.3121 18.3105 10.1111 17.0063 10.2366 15.8983L4.27478 15.2229C4.01338 17.5304 4.47511 19.7677 5.13527 21.774C5.79257 23.7715 6.72549 25.7607 7.55609 27.5397L12.9927 25.0014ZM11.5562 44.4417C13.3589 43.0891 14.6588 41.5201 15.432 39.7249C16.2045 37.9313 16.367 36.1075 16.1956 34.3739C15.8704 31.0832 14.2699 27.737 12.9927 25.0014L7.55609 27.5397C8.96192 30.5508 10.0208 32.9006 10.2247 34.964C10.318 35.9074 10.2126 36.6753 9.92135 37.3515C9.63078 38.0262 9.07114 38.8052 7.95524 39.6425L11.5562 44.4417ZM4.5162 67.3301C3.70375 64.7385 2.6333 61.2316 3.12256 57.2813C3.59243 53.4874 5.55597 48.9438 11.5562 44.4417L7.95524 39.6425C0.750449 45.0483 -2.14703 51.0137 -2.83195 56.5438C-3.49748 61.9174 -2.0165 66.5493 -1.20907 69.1249L4.5162 67.3301ZM5.25585 70.642C5.25582 69.9745 5.09677 69.3188 4.98262 68.8893C4.85428 68.4065 4.68107 67.856 4.5162 67.3301L-1.20907 69.1249C-1.03107 69.6927 -0.903155 70.1028 -0.816068 70.4305C-0.774109 70.5884 -0.752371 70.6879 -0.742134 70.7445C-0.730223 70.8103 -0.744149 70.7627 -0.744154 70.6422L5.25585 70.642ZM1.76758 67.6686L1.49402 67.7404L3.01767 73.5438L3.29123 73.4719L1.76758 67.6686ZM23.2559 80.0001C18.533 80.0001 14.3044 78.78 11.1412 76.863C7.95843 74.934 6.03594 72.4275 5.45281 69.8967L-0.393995 71.2439C0.64705 75.7621 3.8673 79.4705 8.03143 81.9942C12.2152 84.5298 17.5377 86.0001 23.2559 86.0001V80.0001ZM41.2559 68.1705C41.2559 71.0299 39.6191 73.9149 36.3746 76.2061C33.1379 78.4917 28.5091 80.0001 23.2559 80.0001V86.0001C29.6006 86.0001 35.4718 84.1888 39.8356 81.1072C44.1916 78.0311 47.2559 73.5013 47.2559 68.1705H41.2559ZM38.9034 62.3933C40.468 64.1941 41.2559 66.1688 41.2559 68.1705H47.2559C47.2559 64.4952 45.7851 61.1655 43.4325 58.458L38.9034 62.3933ZM40.4941 57.5009L40.4062 57.524L41.9297 63.3273L42.0176 63.3043L40.4941 57.5009ZM40.1573 31.6454C37.1464 35.2407 34.203 38.6236 33.5695 43.4143C32.9442 48.1429 34.6019 53.683 38.5646 61.7282L43.9471 59.077C40.0333 51.131 39.146 47.0118 39.5177 44.2008C39.8812 41.452 41.4767 39.4149 44.7573 35.4977L40.1573 31.6454ZM40.4556 31.2891L40.1571 31.6457L44.7576 35.4974L45.0561 35.1408L40.4556 31.2891ZM46.0562 13.3395C46.1341 13.5183 46.9017 15.3723 46.6049 18.4356C46.311 21.4692 44.9527 25.9148 40.4551 31.2897L45.0566 35.1402C50.2599 28.9219 52.1562 23.3564 52.5769 19.0143C52.9948 14.7018 51.9371 11.8154 51.5564 10.9421L46.0562 13.3395ZM28.2559 3.37781C37.6565 3.37781 44.4605 8.05777 45.9311 12.9969L51.6816 11.2847C49.1512 2.78641 39.0736 -2.62219 28.2559 -2.62219V3.37781ZM10.2559 15.2074C10.2559 12.3481 11.8926 9.46306 15.1371 7.17187C18.3739 4.88619 23.0026 3.37781 28.2559 3.37781V-2.62219C21.9112 -2.62219 16.0399 -0.810851 11.6761 2.27074C7.3201 5.34683 4.25586 9.87664 4.25586 15.2074H10.2559Z" fill="#DE0909" mask="url(#path-1-inside-1)"/>
<line x1="8" y1="11.3827" x2="47" y2="11.3827" stroke="#DE0909" stroke-width="2"/>
<line x1="12" y1="6.43958" x2="44" y2="6.43958" stroke="#DE0909" stroke-width="2"/>
<line x1="8" y1="17.7383" x2="48" y2="17.7383" stroke="#DE0909" stroke-width="2"/>
<line x1="10" y1="23.3877" x2="46" y2="23.3877" stroke="#DE0909" stroke-width="2"/>
<line x1="13" y1="29.7433" x2="43" y2="29.7433" stroke="#DE0909" stroke-width="2"/>
<line x1="15" y1="35.3926" x2="39" y2="35.3926" stroke="#DE0909" stroke-width="2"/>
<line x1="12" y1="40.3358" x2="37" y2="40.3358" stroke="#DE0909" stroke-width="2"/>
<line x1="8" y1="45.2791" x2="34" y2="45.2791" stroke="#DE0909" stroke-width="2"/>
<line x1="3" y1="50.2223" x2="36" y2="50.2223" stroke="#DE0909" stroke-width="2"/>
<line x1="2" y1="55.8716" x2="38" y2="55.8716" stroke="#DE0909" stroke-width="2"/>
<line x1="2" y1="61.521" x2="41" y2="61.521" stroke="#DE0909" stroke-width="2"/>
<line x1="3" y1="68.5828" x2="42" y2="68.5828" stroke="#DE0909" stroke-width="2"/>
<line x1="6" y1="74.2322" x2="40" y2="74.2322" stroke="#DE0909" stroke-width="2"/>
</svg>
