<svg width="50" height="84" viewBox="0 0 50 84" fill="none" xmlns="http://www.w3.org/2000/svg">
<mask id="path-1-inside-1" fill="white">
<path fill-rule="evenodd" clip-rule="evenodd" d="M7.25586 15.3999C7.25586 15.5178 7.25781 15.6353 7.26168 15.7525L7.25572 15.753C6.86879 19.1685 8.58106 22.836 10.2744 26.463C12.9575 32.2097 15.593 37.8547 9.75571 42.2345C-3.4493 52.1423 0.0336893 63.2527 1.65357 68.4199C1.99643 69.5136 2.25583 70.3411 2.25585 70.8345L2.52941 70.7627C4.15358 77.8117 12.8149 83.1925 23.2559 83.1925C34.8538 83.1925 44.2559 76.5531 44.2559 68.3629C44.2559 65.5244 43.1266 62.8722 41.168 60.6181L41.2558 60.595C33.3794 44.6038 36.1658 41.2765 42.4573 33.7639L42.7559 33.4073C52.4575 21.8133 49.2644 13.3841 48.8062 12.333C46.8056 5.61443 38.3649 0.570312 28.2559 0.570312C16.6579 0.570312 7.25586 7.20976 7.25586 15.3999Z"/>
</mask>
<path fill-rule="evenodd" clip-rule="evenodd" d="M7.25586 15.3999C7.25586 15.5178 7.25781 15.6353 7.26168 15.7525L7.25572 15.753C6.86879 19.1685 8.58106 22.836 10.2744 26.463C12.9575 32.2097 15.593 37.8547 9.75571 42.2345C-3.4493 52.1423 0.0336893 63.2527 1.65357 68.4199C1.99643 69.5136 2.25583 70.3411 2.25585 70.8345L2.52941 70.7627C4.15358 77.8117 12.8149 83.1925 23.2559 83.1925C34.8538 83.1925 44.2559 76.5531 44.2559 68.3629C44.2559 65.5244 43.1266 62.8722 41.168 60.6181L41.2558 60.595C33.3794 44.6038 36.1658 41.2765 42.4573 33.7639L42.7559 33.4073C52.4575 21.8133 49.2644 13.3841 48.8062 12.333C46.8056 5.61443 38.3649 0.570312 28.2559 0.570312C16.6579 0.570312 7.25586 7.20976 7.25586 15.3999Z" fill="white"/>
<path d="M7.26168 15.7525L7.51606 18.7417L10.3541 18.5002L10.26 15.6535L7.26168 15.7525ZM7.25572 15.753L7.00134 12.7638L4.55155 12.9723L4.27478 15.4153L7.25572 15.753ZM10.2744 26.463L12.9927 25.1938L10.2744 26.463ZM9.75571 42.2345L7.95524 39.8349L9.75571 42.2345ZM1.65357 68.4199L-1.20906 69.3173H-1.20906L1.65357 68.4199ZM2.25585 70.8345L-0.744154 70.8346L-0.744009 74.7238L3.01768 73.7362L2.25585 70.8345ZM2.52941 70.7627L5.45281 70.0891L4.7585 67.0758L1.76758 67.861L2.52941 70.7627ZM41.168 60.6181L40.4062 57.7164L35.7374 58.9421L38.9034 62.5858L41.168 60.6181ZM41.2558 60.595L42.0176 63.4967L45.5699 62.5641L43.9471 59.2694L41.2558 60.595ZM42.4573 33.7639L44.7573 35.6901L44.7576 35.6898L42.4573 33.7639ZM42.7559 33.4073L45.0561 35.3332L45.0566 35.3326L42.7559 33.4073ZM48.8062 12.333L45.931 13.1892L45.9832 13.3643L46.0562 13.5319L48.8062 12.333ZM10.26 15.6535C10.2573 15.5693 10.2559 15.4847 10.2559 15.3999H4.25586C4.25586 15.5508 4.25835 15.7014 4.26331 15.8516L10.26 15.6535ZM7.5101 18.7422L7.51606 18.7417L7.0073 12.7633L7.00134 12.7638L7.5101 18.7422ZM12.9927 25.1938C12.13 23.3459 11.3601 21.6878 10.8346 20.091C10.3121 18.5029 10.1111 17.1987 10.2366 16.0907L4.27478 15.4153C4.01338 17.7228 4.47511 19.9602 5.13527 21.9664C5.79257 23.9639 6.72549 25.9531 7.55609 27.7321L12.9927 25.1938ZM11.5562 44.6342C13.3589 43.2815 14.6588 41.7125 15.432 39.9173C16.2045 38.1237 16.367 36.3 16.1956 34.5663C15.8704 31.2756 14.2699 27.9294 12.9927 25.1938L7.55609 27.7321C8.96192 30.7432 10.0208 33.093 10.2247 35.1564C10.318 36.0998 10.2126 36.8677 9.92135 37.5439C9.63078 38.2186 9.07114 38.9976 7.95524 39.8349L11.5562 44.6342ZM4.5162 67.5225C3.70375 64.9309 2.6333 61.424 3.12256 57.4737C3.59243 53.6799 5.55596 49.1362 11.5562 44.6342L7.95524 39.8349C0.750447 45.2407 -2.14703 51.2061 -2.83195 56.7362C-3.49748 62.1098 -2.01649 66.7417 -1.20906 69.3173L4.5162 67.5225ZM5.25585 70.8344C5.25582 70.1669 5.09677 69.5112 4.98262 69.0817C4.85428 68.5989 4.68107 68.0484 4.5162 67.5225L-1.20906 69.3173C-1.03107 69.8851 -0.903153 70.2953 -0.816067 70.6229C-0.774108 70.7808 -0.75237 70.8803 -0.742133 70.9369C-0.730223 71.0028 -0.744149 70.9552 -0.744154 70.8346L5.25585 70.8344ZM1.76758 67.861L1.49402 67.9328L3.01768 73.7362L3.29124 73.6643L1.76758 67.861ZM23.2559 80.1925C18.533 80.1925 14.3044 78.9724 11.1412 77.0554C7.95843 75.1264 6.03594 72.6199 5.45281 70.0891L-0.393997 71.4363C0.647045 75.9545 3.86729 79.6629 8.03143 82.1866C12.2152 84.7222 17.5377 86.1925 23.2559 86.1925V80.1925ZM41.2559 68.3629C41.2559 71.2223 39.6191 74.1073 36.3746 76.3985C33.1379 78.6842 28.5091 80.1925 23.2559 80.1925V86.1925C29.6006 86.1925 35.4718 84.3812 39.8356 81.2996C44.1916 78.2235 47.2559 73.6937 47.2559 68.3629H41.2559ZM38.9034 62.5858C40.468 64.3865 41.2559 66.3612 41.2559 68.3629H47.2559C47.2559 64.6876 45.7851 61.3579 43.4325 58.6504L38.9034 62.5858ZM40.4941 57.6933L40.4062 57.7164L41.9297 63.5197L42.0176 63.4967L40.4941 57.6933ZM40.1573 31.8378C37.1464 35.4331 34.203 38.816 33.5695 43.6067C32.9442 48.3353 34.6019 53.8754 38.5646 61.9206L43.9471 59.2694C40.0333 51.3234 39.146 47.2042 39.5177 44.3932C39.8812 41.6444 41.4768 39.6073 44.7573 35.6901L40.1573 31.8378ZM40.4556 31.4815L40.1571 31.8381L44.7576 35.6898L45.0561 35.3332L40.4556 31.4815ZM46.0562 13.5319C46.1339 13.7101 46.9016 15.564 46.605 18.6274C46.3112 21.6609 44.953 26.1068 40.4551 31.4821L45.0566 35.3326C50.2603 29.1138 52.1565 23.5481 52.577 19.2057C52.9947 14.8932 51.9368 12.0069 51.5563 11.1341L46.0562 13.5319ZM28.2559 3.57031C37.6563 3.57031 44.4602 8.25012 45.931 13.1892L51.6815 11.4768C49.1509 2.97875 39.0734 -2.42969 28.2559 -2.42969V3.57031ZM10.2559 15.3999C10.2559 12.5406 11.8926 9.65556 15.1371 7.36438C18.3739 5.0787 23.0026 3.57031 28.2559 3.57031V-2.42969C21.9112 -2.42969 16.0399 -0.618346 11.6761 2.46324C7.32009 5.53933 4.25586 10.0691 4.25586 15.3999H10.2559Z" fill="#DE0909" mask="url(#path-1-inside-1)"/>
</svg>
