<svg width="49" height="83" viewBox="0 0 49 83" fill="none" xmlns="http://www.w3.org/2000/svg">
<mask id="path-1-inside-1" fill="white">
<path fill-rule="evenodd" clip-rule="evenodd" d="M47.92 41.101L24.1903 0L0.460611 41.101H-0.000488281L0.230062 41.5004L-0.000114441 41.899H0.460238L24.1899 83.0001L47.9196 41.899H48.3807L48.1502 41.4997L48.3804 41.101H47.92Z"/>
</mask>
<path fill-rule="evenodd" clip-rule="evenodd" d="M47.92 41.101L24.1903 0L0.460611 41.101H-0.000488281L0.230062 41.5004L-0.000114441 41.899H0.460238L24.1899 83.0001L47.9196 41.899H48.3807L48.1502 41.4997L48.3804 41.101H47.92Z" fill="white"/>
<path d="M24.1903 0L26.7884 -1.5L24.1903 -6L21.5922 -1.5L24.1903 0ZM47.92 41.101L45.3219 42.601L46.188 44.101H47.92V41.101ZM0.460611 41.101V44.101H2.19266L3.05869 42.601L0.460611 41.101ZM-0.000488281 41.101V38.101H-5.19665L-2.59856 42.601L-0.000488281 41.101ZM0.230062 41.5004L2.82814 43.0004L3.69416 41.5004L2.82814 40.0004L0.230062 41.5004ZM-0.000114441 41.899L-2.59819 40.399L-5.19626 44.899H-0.000114441V41.899ZM0.460238 41.899L3.05831 40.399L2.19229 38.899H0.460238V41.899ZM24.1899 83.0001L21.5919 84.5001L24.1899 89.0001L26.788 84.5001L24.1899 83.0001ZM47.9196 41.899V38.899H46.1876L45.3216 40.399L47.9196 41.899ZM48.3807 41.899V44.899H53.5769L50.9788 40.399L48.3807 41.899ZM48.1502 41.4997L45.5521 39.9997L44.6861 41.4997L45.5521 42.9997L48.1502 41.4997ZM48.3804 41.101L50.9784 42.601L53.5765 38.101H48.3804V41.101ZM21.5922 1.5L45.3219 42.601L50.5181 39.601L26.7884 -1.5L21.5922 1.5ZM3.05869 42.601L26.7884 1.5L21.5922 -1.5L-2.13747 39.601L3.05869 42.601ZM-0.000488281 44.101H0.460611V38.101H-0.000488281V44.101ZM2.82814 40.0004L2.59759 39.601L-2.59856 42.601L-2.36801 43.0004L2.82814 40.0004ZM2.59796 43.399L2.82814 43.0004L-2.36802 40.0004L-2.59819 40.399L2.59796 43.399ZM0.460238 38.899H-0.000114441V44.899H0.460238V38.899ZM26.788 81.5001L3.05831 40.399L-2.13784 43.399L21.5919 84.5001L26.788 81.5001ZM45.3216 40.399L21.5919 81.5001L26.788 84.5001L50.5177 43.399L45.3216 40.399ZM48.3807 38.899H47.9196V44.899H48.3807V38.899ZM45.5521 42.9997L45.7827 43.399L50.9788 40.399L50.7482 39.9997L45.5521 42.9997ZM45.7823 39.601L45.5521 39.9997L50.7482 42.9997L50.9784 42.601L45.7823 39.601ZM47.92 44.101H48.3804V38.101H47.92V44.101Z" fill="#8365C1" mask="url(#path-1-inside-1)"/>
<line x1="19" y1="10.3" x2="29" y2="10.3" stroke="#8365C1" stroke-width="1.4"/>
<line x1="17" y1="15.3" x2="31" y2="15.3" stroke="#8365C1" stroke-width="1.4"/>
<line x1="14" y1="20.3" x2="34" y2="20.3" stroke="#8365C1" stroke-width="1.4"/>
<line x1="12" y1="25.3" x2="37" y2="25.3" stroke="#8365C1" stroke-width="1.4"/>
<line x1="8" y1="30.3" x2="41" y2="30.3" stroke="#8365C1" stroke-width="1.4"/>
<line x1="5" y1="35.3" x2="43" y2="35.3" stroke="#8365C1" stroke-width="1.4"/>
<line x1="2" y1="41.3" x2="46" y2="41.3" stroke="#8365C1" stroke-width="1.4"/>
<line x1="29" y1="72.7" x2="19" y2="72.7" stroke="#8365C1" stroke-width="1.4"/>
<line x1="31" y1="67.7" x2="17" y2="67.7" stroke="#8365C1" stroke-width="1.4"/>
<line x1="34" y1="62.7" x2="14" y2="62.7" stroke="#8365C1" stroke-width="1.4"/>
<line x1="36" y1="57.7" x2="11" y2="57.7" stroke="#8365C1" stroke-width="1.4"/>
<line x1="40" y1="52.7" x2="7" y2="52.7" stroke="#8365C1" stroke-width="1.4"/>
<line x1="43" y1="47.7" x2="5" y2="47.7" stroke="#8365C1" stroke-width="1.4"/>
<line x1="46" y1="41.7" x2="2" y2="41.7" stroke="#8365C1" stroke-width="1.4"/>
</svg>
