<svg width="49" height="83" viewBox="0 0 49 83" fill="none" xmlns="http://www.w3.org/2000/svg">
<mask id="path-1-inside-1" fill="white">
<path fill-rule="evenodd" clip-rule="evenodd" d="M47.9205 41.101L24.1908 0L0.461099 41.101H0L0.23055 41.5004L0.00037345 41.899H0.460726L24.1904 83.0001L47.9201 41.899H48.3812L48.1507 41.4997L48.3808 41.101H47.9205Z"/>
</mask>
<path fill-rule="evenodd" clip-rule="evenodd" d="M47.9205 41.101L24.1908 0L0.461099 41.101H0L0.23055 41.5004L0.00037345 41.899H0.460726L24.1904 83.0001L47.9201 41.899H48.3812L48.1507 41.4997L48.3808 41.101H47.9205Z" fill="white"/>
<path d="M24.1908 0L26.7889 -1.5L24.1908 -6L21.5927 -1.5L24.1908 0ZM47.9205 41.101L45.3224 42.601L46.1884 44.101H47.9205V41.101ZM0.461099 41.101V44.101H2.19315L3.05918 42.601L0.461099 41.101ZM0 41.101V38.101H-5.19616L-2.59807 42.601L0 41.101ZM0.23055 41.5004L2.82863 43.0004L3.69465 41.5004L2.82862 40.0004L0.23055 41.5004ZM0.00037345 41.899L-2.5977 40.399L-5.19577 44.899H0.00037345V41.899ZM0.460726 41.899L3.0588 40.399L2.19278 38.899H0.460726V41.899ZM24.1904 83.0001L21.5924 84.5001L24.1904 89.0001L26.7885 84.5001L24.1904 83.0001ZM47.9201 41.899V38.899H46.1881L45.322 40.399L47.9201 41.899ZM48.3812 41.899V44.899H53.5774L50.9793 40.399L48.3812 41.899ZM48.1507 41.4997L45.5526 39.9997L44.6866 41.4997L45.5526 42.9997L48.1507 41.4997ZM48.3808 41.101L50.9789 42.601L53.577 38.101H48.3808V41.101ZM21.5927 1.5L45.3224 42.601L50.5186 39.601L26.7889 -1.5L21.5927 1.5ZM3.05918 42.601L26.7889 1.5L21.5927 -1.5L-2.13698 39.601L3.05918 42.601ZM0 44.101H0.461099V38.101H0V44.101ZM2.82862 40.0004L2.59807 39.601L-2.59807 42.601L-2.36752 43.0004L2.82862 40.0004ZM2.59845 43.399L2.82863 43.0004L-2.36753 40.0004L-2.5977 40.399L2.59845 43.399ZM0.460726 38.899H0.00037345V44.899H0.460726V38.899ZM26.7885 81.5001L3.0588 40.399L-2.13735 43.399L21.5924 84.5001L26.7885 81.5001ZM45.322 40.399L21.5924 81.5001L26.7885 84.5001L50.5182 43.399L45.322 40.399ZM48.3812 38.899H47.9201V44.899H48.3812V38.899ZM45.5526 42.9997L45.7831 43.399L50.9793 40.399L50.7487 39.9997L45.5526 42.9997ZM45.7828 39.601L45.5526 39.9997L50.7487 42.9997L50.9789 42.601L45.7828 39.601ZM47.9205 44.101H48.3808V38.101H47.9205V44.101Z" fill="#DE0909" mask="url(#path-1-inside-1)"/>
<line x1="19" y1="10.3" x2="29" y2="10.3" stroke="#DE0909" stroke-width="1.4"/>
<line x1="17" y1="15.3" x2="31" y2="15.3" stroke="#DE0909" stroke-width="1.4"/>
<line x1="14" y1="20.3" x2="34" y2="20.3" stroke="#DE0909" stroke-width="1.4"/>
<line x1="12" y1="25.3" x2="37" y2="25.3" stroke="#DE0909" stroke-width="1.4"/>
<line x1="8" y1="30.3" x2="41" y2="30.3" stroke="#DE0909" stroke-width="1.4"/>
<line x1="5" y1="35.3" x2="43" y2="35.3" stroke="#DE0909" stroke-width="1.4"/>
<line x1="2" y1="41.3" x2="46" y2="41.3" stroke="#DE0909" stroke-width="1.4"/>
<line x1="29" y1="72.7" x2="19" y2="72.7" stroke="#DE0909" stroke-width="1.4"/>
<line x1="31" y1="67.7" x2="17" y2="67.7" stroke="#DE0909" stroke-width="1.4"/>
<line x1="34" y1="62.7" x2="14" y2="62.7" stroke="#DE0909" stroke-width="1.4"/>
<line x1="36" y1="57.7" x2="11" y2="57.7" stroke="#DE0909" stroke-width="1.4"/>
<line x1="40" y1="52.7" x2="7" y2="52.7" stroke="#DE0909" stroke-width="1.4"/>
<line x1="43" y1="47.7" x2="5" y2="47.7" stroke="#DE0909" stroke-width="1.4"/>
<line x1="46" y1="41.7" x2="2" y2="41.7" stroke="#DE0909" stroke-width="1.4"/>
</svg>
