<svg width="48" height="82" viewBox="0 0 48 82" fill="none" xmlns="http://www.w3.org/2000/svg">
<mask id="path-1-inside-1" fill="white">
<path fill-rule="evenodd" clip-rule="evenodd" d="M47.5118 40.6057L24.0681 0L0.624369 40.6057H0.168518L0.396444 41.0005L0.169154 41.3942H0.623733L24.0675 81.9999L47.5112 41.3942H47.9671L47.7391 40.9994L47.9664 40.6057H47.5118Z"/>
</mask>
<path fill-rule="evenodd" clip-rule="evenodd" d="M47.5118 40.6057L24.0681 0L0.624369 40.6057H0.168518L0.396444 41.0005L0.169154 41.3942H0.623733L24.0675 81.9999L47.5112 41.3942H47.9671L47.7391 40.9994L47.9664 40.6057H47.5118Z" fill="white"/>
<path d="M24.0681 0L26.6662 -1.5L24.0681 -6L21.47 -1.5L24.0681 0ZM47.5118 40.6057L44.9138 42.1057L45.7798 43.6057H47.5118V40.6057ZM0.624369 40.6057V43.6057H2.35642L3.22245 42.1057L0.624369 40.6057ZM0.168518 40.6057V37.6057H-5.02763L-2.42956 42.1057L0.168518 40.6057ZM0.396444 41.0005L2.99452 42.5005L3.86055 41.0005L2.99452 39.5005L0.396444 41.0005ZM0.169154 41.3942L-2.42892 39.8942L-5.027 44.3942H0.169154V41.3942ZM0.623733 41.3942L3.22181 39.8942L2.35578 38.3942H0.623733V41.3942ZM24.0675 81.9999L21.4694 83.4999L24.0675 87.9999L26.6655 83.4999L24.0675 81.9999ZM47.5112 41.3942V38.3942H45.7791L44.9131 39.8942L47.5112 41.3942ZM47.9671 41.3942V44.3942H53.1632L50.5651 39.8942L47.9671 41.3942ZM47.7391 40.9994L45.1411 39.4994L44.275 40.9994L45.141 42.4994L47.7391 40.9994ZM47.9664 40.6057L50.5645 42.1057L53.1626 37.6057H47.9664V40.6057ZM21.47 1.5L44.9138 42.1057L50.1099 39.1057L26.6662 -1.5L21.47 1.5ZM3.22245 42.1057L26.6662 1.5L21.47 -1.5L-1.97371 39.1057L3.22245 42.1057ZM0.168518 43.6057H0.624369V37.6057H0.168518V43.6057ZM2.99452 39.5005L2.7666 39.1057L-2.42956 42.1057L-2.20163 42.5005L2.99452 39.5005ZM2.76723 42.8942L2.99452 42.5005L-2.20163 39.5005L-2.42892 39.8942L2.76723 42.8942ZM0.623733 38.3942H0.169154V44.3942H0.623733V38.3942ZM26.6655 80.4999L3.22181 39.8942L-1.97434 42.8942L21.4694 83.4999L26.6655 80.4999ZM44.9131 39.8942L21.4694 80.4999L26.6655 83.4999L50.1093 42.8942L44.9131 39.8942ZM47.9671 38.3942H47.5112V44.3942H47.9671V38.3942ZM45.141 42.4994L45.369 42.8942L50.5651 39.8942L50.3372 39.4994L45.141 42.4994ZM45.3683 39.1057L45.1411 39.4994L50.3372 42.4994L50.5645 42.1057L45.3683 39.1057ZM47.5118 43.6057H47.9664V37.6057H47.5118V43.6057Z" fill="#44B210" mask="url(#path-1-inside-1)"/>
</svg>
