<svg width="48" height="82" viewBox="0 0 48 82" fill="none" xmlns="http://www.w3.org/2000/svg">
<mask id="path-1-inside-1" fill="white">
<path fill-rule="evenodd" clip-rule="evenodd" d="M47.3433 40.6057L23.8996 0L0.455852 40.6057H0L0.227926 41.0005L0.000636859 41.3942H0.455215L23.899 81.9999L47.3427 41.3942H47.7985L47.5706 40.9994L47.7979 40.6057H47.3433Z"/>
</mask>
<path fill-rule="evenodd" clip-rule="evenodd" d="M47.3433 40.6057L23.8996 0L0.455852 40.6057H0L0.227926 41.0005L0.000636859 41.3942H0.455215L23.899 81.9999L47.3427 41.3942H47.7985L47.5706 40.9994L47.7979 40.6057H47.3433Z" fill="white"/>
<path d="M23.8996 0L26.4977 -1.5L23.8996 -6L21.3015 -1.5L23.8996 0ZM47.3433 40.6057L44.7452 42.1057L45.6113 43.6057H47.3433V40.6057ZM0.455852 40.6057V43.6057H2.1879L3.05393 42.1057L0.455852 40.6057ZM0 40.6057V37.6057H-5.19616L-2.59808 42.1057L0 40.6057ZM0.227926 41.0005L2.826 42.5005L3.69203 41.0005L2.826 39.5005L0.227926 41.0005ZM0.000636859 41.3942L-2.59744 39.8942L-5.19551 44.3942H0.000636859V41.3942ZM0.455215 41.3942L3.05329 39.8942L2.18727 38.3942H0.455215V41.3942ZM23.899 81.9999L21.3009 83.4999L23.899 87.9999L26.497 83.4999L23.899 81.9999ZM47.3427 41.3942V38.3942H45.6106L44.7446 39.8942L47.3427 41.3942ZM47.7985 41.3942V44.3942H52.9947L50.3966 39.8942L47.7985 41.3942ZM47.5706 40.9994L44.9725 39.4994L44.1065 40.9994L44.9725 42.4994L47.5706 40.9994ZM47.7979 40.6057L50.396 42.1057L52.994 37.6057H47.7979V40.6057ZM21.3015 1.5L44.7452 42.1057L49.9414 39.1057L26.4977 -1.5L21.3015 1.5ZM3.05393 42.1057L26.4977 1.5L21.3015 -1.5L-2.14222 39.1057L3.05393 42.1057ZM0 43.6057H0.455852V37.6057H0V43.6057ZM2.826 39.5005L2.59808 39.1057L-2.59808 42.1057L-2.37015 42.5005L2.826 39.5005ZM2.59871 42.8942L2.826 42.5005L-2.37015 39.5005L-2.59744 39.8942L2.59871 42.8942ZM0.455215 38.3942H0.000636859V44.3942H0.455215V38.3942ZM26.497 80.4999L3.05329 39.8942L-2.14286 42.8942L21.3009 83.4999L26.497 80.4999ZM44.7446 39.8942L21.3009 80.4999L26.497 83.4999L49.9408 42.8942L44.7446 39.8942ZM47.7985 38.3942H47.3427V44.3942H47.7985V38.3942ZM44.9725 42.4994L45.2005 42.8942L50.3966 39.8942L50.1687 39.4994L44.9725 42.4994ZM45.1998 39.1057L44.9725 39.4994L50.1687 42.4994L50.396 42.1057L45.1998 39.1057ZM47.3433 43.6057H47.7979V37.6057H47.3433V43.6057Z" fill="#DE0909" mask="url(#path-1-inside-1)"/>
</svg>
