<svg width="49" height="82" viewBox="0 0 49 82" fill="none" xmlns="http://www.w3.org/2000/svg">
<mask id="path-1-inside-1" fill="white">
<path fill-rule="evenodd" clip-rule="evenodd" d="M47.6805 40.6057L24.2367 0L0.793011 40.6057H0.337158L0.565085 41.0005L0.337796 41.3942H0.792374L24.2361 81.9999L47.6798 41.3942H48.1357L47.9078 40.9994L48.1351 40.6057H47.6805Z"/>
</mask>
<path fill-rule="evenodd" clip-rule="evenodd" d="M47.6805 40.6057L24.2367 0L0.793011 40.6057H0.337158L0.565085 41.0005L0.337796 41.3942H0.792374L24.2361 81.9999L47.6798 41.3942H48.1357L47.9078 40.9994L48.1351 40.6057H47.6805Z" fill="white"/>
<path d="M24.2367 0L26.8348 -1.5L24.2367 -6L21.6387 -1.5L24.2367 0ZM47.6805 40.6057L45.0824 42.1057L45.9484 43.6057H47.6805V40.6057ZM0.793011 40.6057V43.6057H2.52506L3.39109 42.1057L0.793011 40.6057ZM0.337158 40.6057V37.6057H-4.859L-2.26092 42.1057L0.337158 40.6057ZM0.565085 41.0005L3.16316 42.5005L4.02919 41.0005L3.16316 39.5005L0.565085 41.0005ZM0.337796 41.3942L-2.26028 39.8942L-4.85835 44.3942H0.337796V41.3942ZM0.792374 41.3942L3.39045 39.8942L2.52442 38.3942H0.792374V41.3942ZM24.2361 81.9999L21.638 83.4999L24.2361 87.9999L26.8342 83.4999L24.2361 81.9999ZM47.6798 41.3942V38.3942H45.9478L45.0818 39.8942L47.6798 41.3942ZM48.1357 41.3942V44.3942H53.3318L50.7338 39.8942L48.1357 41.3942ZM47.9078 40.9994L45.3097 39.4994L44.4437 40.9994L45.3097 42.4994L47.9078 40.9994ZM48.1351 40.6057L50.7331 42.1057L53.3312 37.6057H48.1351V40.6057ZM21.6387 1.5L45.0824 42.1057L50.2786 39.1057L26.8348 -1.5L21.6387 1.5ZM3.39109 42.1057L26.8348 1.5L21.6387 -1.5L-1.80506 39.1057L3.39109 42.1057ZM0.337158 43.6057H0.793011V37.6057H0.337158V43.6057ZM3.16316 39.5005L2.93523 39.1057L-2.26092 42.1057L-2.03299 42.5005L3.16316 39.5005ZM2.93587 42.8942L3.16316 42.5005L-2.03299 39.5005L-2.26028 39.8942L2.93587 42.8942ZM0.792374 38.3942H0.337796V44.3942H0.792374V38.3942ZM26.8342 80.4999L3.39045 39.8942L-1.8057 42.8942L21.638 83.4999L26.8342 80.4999ZM45.0818 39.8942L21.638 80.4999L26.8342 83.4999L50.2779 42.8942L45.0818 39.8942ZM48.1357 38.3942H47.6798V44.3942H48.1357V38.3942ZM45.3097 42.4994L45.5376 42.8942L50.7338 39.8942L50.5058 39.4994L45.3097 42.4994ZM45.537 39.1057L45.3097 39.4994L50.5058 42.4994L50.7331 42.1057L45.537 39.1057ZM47.6805 43.6057H48.1351V37.6057H47.6805V43.6057Z" fill="#8365C1" mask="url(#path-1-inside-1)"/>
</svg>
